<?xml version="1.0" encoding="utf-8"?>
<!-- Svg Vector Icons : http://www.onlinewebfonts.com/icon -->
<!DOCTYPE svg PUBLIC "-//W3C//DTD SVG 1.1//EN" "http://www.w3.org/Graphics/SVG/1.1/DTD/svg11.dtd">
<svg version="1.1" xmlns="http://www.w3.org/2000/svg" xmlns:xlink="http://www.w3.org/1999/xlink" x="0px" y="0px" viewBox="0 0 1000 1000" enable-background="new 0 0 1000 1000" xml:space="preserve">
<metadata> Svg Vector Icons : http://www.onlinewebfonts.com/icon </metadata>
<g><path d="M573,314c-1.1,28.7,9.6,47.8,34.5,63c110,67.4,219.1,136.2,328.5,204.7c27.6,17.3,43.8,73.8,29.3,102.6c-6.7,13.2-17.6,10.4-29,6.8c-80.1-25.2-160.3-50.1-240.5-75.1c-30.5-9.5-61.1-19.1-91.7-28.3c-23.4-7-30.4-2.7-30.6,20.9c-0.5,70.6-0.3,141.2,0,211.8c0.1,18.8,8,33.9,23.4,45.1c14.9,10.8,29.1,22.7,44.3,33.2c22.5,15.4,33,35.7,31.1,63.3c-1.8,26.5-8.5,32.2-35.1,24.8c-33.9-9.4-67.9-18.5-101.5-29.2c-24.7-7.9-48.5-7.7-73.1-0.2c-34.4,10.6-69,20.4-103.7,30c-24.7,6.8-31.7,0.5-33.3-24.6c-1.9-28.4,9.2-48.5,32.1-65.2c77-56.3,65.4-40.7,66.4-131.6c0.5-50.5,0.3-101.1-0.1-151.6c-0.3-30.6-5.5-34.4-34.4-25.4c-106.9,33.2-213.8,66.7-320.6,100c-33,10.3-36.1,6.3-39.1-27.6c-3.8-42.5,11.1-69.1,49-91.6C185,507,288.4,439.4,393.5,374.7c22.6-13.9,31.1-31.7,30.9-57.5c-0.8-76.2-0.6-152.4,0.2-228.6c0.4-38.3,22.5-67.2,55-76.1c30.8-8.4,63.4,4.4,81.6,32c9.6,14.6,12.6,30.9,12.4,48.1c-0.2,19.3-0.1,38.5-0.1,57.8c0,18.4,0,36.9,0,55.3C573.4,241.8,574.4,278,573,314z"/></g>
</svg>